<?xml version="1.0" standalone="no"?>
<!DOCTYPE svg PUBLIC "-//W3C//DTD SVG 20010904//EN"
 "http://www.w3.org/TR/2001/REC-SVG-20010904/DTD/svg10.dtd">
<svg version="1.0" xmlns="http://www.w3.org/2000/svg"
 width="512.000000pt" height="512.000000pt" viewBox="0 0 512.000000 512.000000"
 preserveAspectRatio="xMidYMid meet">
<metadata>
Created by potrace 1.16, written by Peter Selinger 2001-2019
</metadata>
<g transform="translate(0.000000,512.000000) scale(0.100000,-0.100000)"
fill="#000000" stroke="none">
<path d="M187 4932 c-147 -147 -188 -194 -185 -211 2 -18 40 15 213 189 175
175 206 210 185 210 -19 0 -69 -44 -213 -188z"/>
<path d="M287 4832 c-227 -227 -288 -294 -285 -311 2 -17 59 35 313 289 255
255 305 310 285 310 -20 0 -89 -64 -313 -288z"/>
<path d="M387 4732 c-307 -307 -388 -393 -385 -411 2 -17 79 55 413 389 335
335 405 410 385 410 -20 0 -109 -84 -413 -388z"/>
<path d="M487 4632 c-388 -388 -488 -493 -485 -511 2 -17 99 74 513 489 415
415 505 510 485 510 -20 0 -129 -104 -513 -488z"/>
<path d="M587 4532 c-468 -468 -588 -593 -585 -611 2 -17 118 94 613 589 495
495 605 610 585 610 -20 0 -149 -124 -613 -588z"/>
<path d="M687 4432 c-548 -548 -688 -693 -685 -711 2 -17 138 114 713 689 575
575 705 710 685 710 -20 0 -169 -144 -713 -688z"/>
<path d="M787 4332 c-629 -629 -788 -793 -785 -811 2 -17 158 133 813 789 655
655 805 810 785 810 -20 0 -189 -164 -813 -788z"/>
<path d="M887 4232 c-709 -709 -888 -893 -885 -911 2 -17 177 153 913 889 735
735 905 910 885 910 -20 0 -209 -184 -913 -888z"/>
<path d="M987 4132 c-782 -782 -987 -992 -987 -1012 0 -20 122 97 640 615
l640 640 0 -75 0 -75 -640 -640 c-505 -505 -640 -645 -640 -665 0 -20 121 96
640 615 l640 640 0 -75 0 -75 -640 -640 c-505 -505 -640 -645 -640 -665 0 -20
121 96 640 615 l640 640 0 -75 0 -75 -640 -640 c-505 -505 -640 -645 -640
-665 0 -20 121 96 640 615 l640 640 0 -75 0 -75 -640 -640 c-505 -505 -640
-645 -640 -665 0 -20 80 55 436 410 240 239 431 425 425 413 -14 -28 -14 -79
0 -105 10 -19 -28 -60 -425 -457 -341 -341 -436 -441 -436 -461 0 -20 83 58
448 422 l447 447 69 -6 68 -6 -516 -516 c-405 -405 -516 -521 -516 -541 0 -20
103 78 543 518 l542 542 75 0 75 0 -618 -618 c-486 -486 -617 -622 -617 -642
0 -20 122 97 640 615 l640 640 0 -75 0 -75 -640 -640 c-505 -505 -640 -645
-640 -665 0 -20 121 96 640 615 l640 640 0 -75 0 -75 -640 -640 c-505 -505
-640 -645 -640 -665 0 -20 121 96 640 615 l640 640 0 -75 0 -75 -640 -640
c-505 -505 -640 -645 -640 -665 0 -20 121 96 640 615 l640 640 0 -75 0 -75
-640 -640 c-505 -505 -640 -645 -640 -665 0 -20 121 96 640 615 l640 640 0
-75 0 -75 -640 -640 c-505 -505 -640 -645 -640 -665 0 -20 121 96 640 615
l640 640 0 -75 0 -75 -640 -640 c-505 -505 -640 -645 -640 -665 0 -20 122 97
643 618 l643 643 13 -62 12 -62 -655 -656 c-517 -517 -656 -661 -656 -681 0
-20 127 102 663 638 l664 664 22 -53 23 -52 -686 -686 c-541 -541 -686 -691
-686 -711 0 -20 133 108 695 670 382 382 696 692 698 690 2 -3 16 -23 31 -45
l26 -40 -697 -697 c-564 -564 -693 -698 -673 -698 20 0 169 144 710 685 l685
684 34 -40 34 -41 -644 -644 c-522 -522 -639 -644 -619 -644 20 0 158 133 659
634 l634 634 42 -32 43 -31 -601 -602 c-488 -489 -597 -603 -577 -603 20 0
151 126 616 591 l591 591 44 -22 c24 -12 46 -24 49 -27 2 -2 -250 -258 -560
-568 -459 -459 -560 -565 -540 -565 20 0 143 118 584 559 l558 558 52 -15 c28
-9 53 -18 56 -19 2 -2 -239 -247 -535 -543 -439 -439 -535 -540 -515 -540 20
0 139 114 560 535 581 581 537 544 633 528 l39 -6 -529 -529 c-425 -426 -523
-529 -500 -526 21 2 213 189 871 847 l844 843 18 -56 18 -57 -789 -789 c-639
-639 -785 -790 -765 -790 20 0 186 161 795 770 423 424 772 770 775 770 3 0
17 -20 30 -45 l25 -45 -725 -725 c-586 -586 -720 -725 -700 -725 20 0 175 150
735 710 l711 711 33 -42 34 -41 -669 -669 c-541 -541 -664 -669 -644 -669 20
0 164 139 682 657 l658 658 37 -38 38 -37 -620 -620 c-503 -503 -615 -620
-595 -620 20 0 154 128 634 609 l609 609 48 -26 48 -27 -582 -582 c-471 -472
-577 -583 -557 -583 20 0 147 122 597 572 l572 572 39 -13 c22 -8 46 -17 53
-22 10 -6 -133 -156 -536 -559 -446 -446 -545 -550 -525 -550 20 0 142 117
571 546 l546 545 62 -12 62 -13 -533 -533 c-433 -433 -528 -533 -508 -533 20
0 138 113 555 530 l530 530 43 0 c85 0 140 56 128 129 l-6 37 695 694 c549
549 695 700 695 720 0 20 -134 -109 -705 -680 -648 -648 -707 -704 -725 -692
-11 6 -30 12 -42 12 -13 0 -28 4 -35 8 -8 5 243 263 747 767 601 601 760 765
760 785 0 20 -151 -126 -788 -763 l-788 -788 -52 11 c-28 7 -54 15 -56 19 -3
4 375 387 840 852 668 668 844 849 844 869 0 20 -167 -142 -867 -842 l-868
-867 -49 26 -49 25 916 916 c726 726 917 922 917 942 0 20 -180 -155 -928
-903 -510 -510 -932 -927 -938 -927 -5 0 -24 15 -42 33 l-32 32 970 970 c769
769 970 975 970 995 0 20 -190 -165 -984 -959 l-984 -984 -31 44 -32 43 1016
1016 c804 804 1015 1020 1015 1040 0 20 -199 -174 -1024 -999 l-1024 -1024
-21 41 c-12 23 -21 47 -21 54 0 7 470 483 1045 1058 829 829 1045 1050 1045
1070 0 20 -204 -179 -1054 -1029 l-1054 -1054 -7 39 c-3 21 -8 50 -11 64 -4
22 127 156 1061 1090 845 845 1065 1070 1065 1090 0 20 -206 -181 -1065 -1040
l-1065 -1065 0 75 0 75 1065 1065 c845 845 1065 1070 1065 1090 0 20 -206
-181 -1065 -1040 l-1065 -1065 0 75 0 75 348 346 347 347 48 5 c69 7 107 44
107 106 l0 46 640 640 c505 505 640 645 640 665 0 20 -123 -98 -649 -624 -646
-646 -649 -649 -672 -632 -13 9 -39 16 -59 16 -34 0 -10 25 673 708 558 558
707 712 707 732 0 20 -141 -116 -733 -708 l-732 -732 -75 0 -75 0 808 808
c638 638 807 812 807 832 0 20 -161 -136 -833 -808 l-832 -832 -75 0 -75 0
908 908 c718 718 907 912 907 932 0 20 -181 -156 -933 -908 l-932 -932 -75 0
-75 0 960 960 c775 775 955 960 935 960 -20 0 -224 -199 -985 -960 -880 -880
-963 -960 -992 -960 -32 0 -33 1 -33 42 l0 43 917 917 c740 740 913 918 893
918 -20 0 -211 -186 -917 -892 l-893 -893 0 75 0 75 817 817 c660 660 813 818
793 818 -20 0 -191 -166 -817 -792 l-793 -793 0 75 0 75 717 717 c580 580 713
718 693 718 -20 0 -171 -146 -717 -692 l-693 -693 0 75 0 75 617 617 c500 500
613 618 593 618 -20 0 -151 -126 -617 -592 l-593 -593 0 75 0 75 517 517 c420
420 513 518 493 518 -20 0 -131 -106 -517 -492 l-493 -493 0 75 0 75 417 417
c340 340 413 418 393 418 -19 0 -111 -86 -417 -392 -382 -382 -393 -392 -393
-358 -1 19 -7 46 -15 60 -14 25 -10 29 318 358 272 272 327 332 307 332 -20 0
-96 -71 -345 -320 l-320 -320 -48 0 c-27 0 -57 -5 -68 -10 -28 -15 -49 -63
-49 -112 l0 -43 -558 -558 -557 -557 -75 0 -75 0 960 960 c774 774 955 960
935 960 -20 0 -220 -195 -962 -937 l-938 -938 0 75 0 75 862 862 c696 696 858
863 838 863 -20 0 -200 -175 -862 -837 l-838 -838 0 75 0 75 762 762 c616 616
758 763 738 763 -20 0 -180 -155 -762 -737 l-738 -738 0 75 0 75 662 662 c536
536 658 663 638 663 -20 0 -160 -135 -662 -637 l-638 -638 0 75 0 75 562 562
c456 456 558 563 538 563 -20 0 -140 -115 -562 -537 l-538 -538 0 75 0 75 462
462 c376 376 458 463 438 463 -20 0 -120 -95 -462 -437 l-438 -438 0 75 0 75
362 362 c297 297 358 363 338 363 -20 0 -101 -76 -369 -344 l-345 -345 -24 25
c-14 13 -36 24 -51 24 -22 0 24 50 294 320 262 262 315 320 295 320 -20 0
-230 -205 -1013 -988z m1326 -474 l-458 -458 -75 0 -75 0 530 530 530 530 3
-72 3 -72 -458 -458z m100 -100 l-358 -358 -75 0 -75 0 430 430 430 430 3 -72
3 -72 -358 -358z m100 -100 l-258 -258 -75 0 -75 0 330 330 330 330 3 -72 3
-72 -258 -258z m100 -100 l-158 -158 -75 0 -75 0 230 230 230 230 3 -72 3 -72
-158 -158z m-1444 -44 l-112 -113 -79 -3 -78 -3 188 188 187 187 3 -72 3 -72
-112 -112z m1544 -56 l-57 -58 -76 0 -75 0 130 130 130 130 3 -72 3 -71 -58
-59z m-1043 -443 l-165 -165 -3 72 -3 72 93 93 93 93 75 0 75 0 -165 -165z
m100 -100 l-265 -265 -3 72 -3 72 193 193 193 193 75 0 75 0 -265 -265z m100
-100 l-365 -365 -3 72 -3 72 293 293 293 293 75 0 75 0 -365 -365z m100 -100
l-465 -465 -3 72 -3 72 393 393 393 393 75 0 75 0 -465 -465z m100 -100 l-565
-565 -3 72 -3 72 493 493 493 493 75 0 75 0 -565 -565z m700 532 c0 -29 -54
-86 -614 -646 l-614 -614 -17 58 -17 58 588 588 589 589 42 0 c42 0 43 -1 43
-33z m345 -87 l-120 -120 -3 71 -3 72 48 49 47 48 75 0 76 0 -120 -120z m100
-100 l-220 -220 -3 72 -3 72 148 148 148 148 75 0 75 0 -220 -220z m100 -100
l-320 -320 -3 72 -3 72 248 248 248 248 75 0 75 0 -320 -320z m-1123 -523
l-580 -580 -27 48 -28 47 604 604 604 604 3 -72 3 -72 -579 -579z m46 -154
c-420 -421 -535 -530 -545 -521 -8 6 -23 24 -35 41 l-21 29 564 564 564 564 3
-72 3 -72 -533 -533z m58 -142 l-475 -475 -40 27 c-23 15 -41 31 -41 35 0 4
231 238 513 520 l512 512 3 -72 3 -72 -475 -475z m72 -128 c-222 -222 -407
-403 -413 -403 -5 0 -30 10 -55 21 l-44 20 454 455 455 454 3 -72 3 -72 -403
-403z m88 -112 l-316 -316 -52 3 c-29 2 -60 5 -67 8 -10 3 116 136 365 385
l379 379 3 -72 3 -72 -315 -315z m61 -138 l-271 -272 -12 29 c-7 16 -22 35
-33 42 -20 12 -4 30 271 306 l293 292 12 -62 12 -63 -272 -272z"/>
<path d="M3885 1230 c-991 -991 -1225 -1230 -1205 -1230 37 0 2443 2407 2438
2439 -2 17 -240 -216 -1233 -1209z"/>
<path d="M3985 1130 c-911 -911 -1125 -1130 -1105 -1130 37 0 2243 2207 2238
2239 -2 17 -221 -196 -1133 -1109z"/>
<path d="M4085 1030 c-831 -831 -1025 -1030 -1005 -1030 37 0 2043 2007 2038
2039 -2 17 -201 -177 -1033 -1009z"/>
<path d="M4185 930 c-751 -751 -925 -930 -905 -930 37 0 1843 1807 1838 1839
-2 17 -181 -157 -933 -909z"/>
<path d="M4285 830 c-671 -671 -825 -830 -805 -830 37 0 1643 1607 1638 1639
-2 17 -162 -137 -833 -809z"/>
<path d="M4385 730 c-591 -591 -725 -730 -705 -730 37 0 1443 1407 1438 1439
-2 17 -142 -118 -733 -709z"/>
<path d="M4485 630 c-511 -511 -625 -630 -605 -630 37 0 1243 1207 1238 1239
-2 17 -122 -98 -633 -609z"/>
<path d="M4585 530 c-431 -431 -525 -530 -505 -530 37 0 1043 1007 1038 1039
-2 17 -103 -78 -533 -509z"/>
<path d="M4685 430 c-351 -351 -425 -430 -405 -430 37 0 843 807 838 839 -2
17 -83 -59 -433 -409z"/>
<path d="M4785 330 c-271 -271 -325 -330 -305 -330 37 0 643 607 638 639 -2
17 -63 -39 -333 -309z"/>
<path d="M4885 230 c-191 -191 -226 -230 -205 -230 37 0 443 407 438 439 -2
18 -44 -19 -233 -209z"/>
</g>
</svg>
